# xmcd
#
# Track frame offsets:
#	150
#	12894
#	24919
#	46311
#	70808
#	105375
#	143434
#	171438
#	205341
#	248840
#	283872
#	305891
#
# Disc length: 4343 seconds
#
# Revision: 1
# Processed by: cddbd v1.5.2PL0 Copyright (c) Steve Scherf et al.
# Submitted via: audiograbber 1.83.01
#
DISCID=a410f50c
DTITLE=Grateful Dead - 79-02-07 SIU Arena, Carbondale IL
DYEAR=1900
DGENRE=
TTITLE0=Don't Ease Me In
TTITLE1=Mama Tried
TTITLE2=Mexicali Blues
TTITLE3=Jack-A-Roe
TTITLE4=Looks Like Rain
TTITLE5=They Love Each Other
TTITLE6=New Minglewood Blues
TTITLE7=Stagger Lee
TTITLE8=Dancing In The Streets
TTITLE9=Drums
TTITLE10=I Need A Miracle
TTITLE11=Bertha
EXTD=
EXTT0=
EXTT1=
EXTT2=
EXTT3=
EXTT4=
EXTT5=
EXTT6=
EXTT7=
EXTT8=
EXTT9=
EXTT10=
EXTT11=
PLAYORDER=
